<?xml version="1.0" encoding="UTF-8" standalone="no"?>
<svg width="126px" height="128px" viewBox="0 0 126 128" version="1.1" xmlns="http://www.w3.org/2000/svg" xmlns:xlink="http://www.w3.org/1999/xlink">
    <!-- Generator: Sketch 3.8.3 (29802) - http://www.bohemiancoding.com/sketch -->
    <title>Settings</title>
    <desc>Created with Sketch.</desc>
    <defs></defs>
    <g id="Page-1" stroke="none" stroke-width="1" fill="none" fill-rule="evenodd">
        <g id="Desktop-HD" transform="translate(-1153.000000, -256.000000)">
            <g id="Settings" transform="translate(1152.000000, 256.000000)">
                <polygon id="Fill-1" points="0 128 128 128 128 0 0 0"></polygon>
                <path d="M64,104 C41.909,104 24,86.091 24,64 C24,41.909 41.909,24 64,24 C86.091,24 104,41.909 104,64 C104,86.091 86.091,104 64,104 M112,64 C112,61.849 111.844,59.736 111.57,57.66 L126.782,51.565 C125.789,46.523 124.2,41.699 122.098,37.159 L106.229,41.164 C104.198,37.415 101.673,33.976 98.756,30.914 L107.475,17.049 C103.771,13.617 99.661,10.623 95.224,8.137 L84.742,20.703 C80.967,18.891 76.914,17.571 72.67,16.796 L71.575,0.461 C69.089,0.168 66.565,0 64,0 C61.435,0 58.911,0.168 56.425,0.461 L55.33,16.796 C51.086,17.571 47.033,18.891 43.258,20.703 L32.776,8.137 C28.339,10.623 24.229,13.617 20.525,17.049 L29.244,30.914 C26.327,33.976 23.802,37.415 21.771,41.164 L5.902,37.159 C3.8,41.699 2.211,46.523 1.218,51.565 L16.43,57.66 C16.156,59.736 16,61.849 16,64 C16,66.151 16.156,68.264 16.43,70.34 L1.218,76.435 C2.211,81.477 3.8,86.301 5.902,90.841 L21.771,86.836 C23.802,90.585 26.327,94.024 29.244,97.086 L20.525,110.951 C24.229,114.383 28.339,117.377 32.776,119.863 L43.258,107.297 C47.033,109.109 51.086,110.429 55.33,111.204 L56.425,127.539 C58.911,127.832 61.435,128 64,128 C66.565,128 69.089,127.832 71.575,127.539 L72.67,111.204 C76.914,110.429 80.967,109.109 84.742,107.297 L95.224,119.863 C99.661,117.377 103.771,114.383 107.475,110.951 L98.756,97.086 C101.673,94.024 104.198,90.585 106.229,86.836 L122.098,90.841 C124.2,86.301 125.789,81.477 126.782,76.435 L111.57,70.34 C111.844,68.264 112,66.151 112,64" id="Fill-3" fill="#FFFFFF"></path>
            </g>
        </g>
    </g>
</svg>